{
  "source": "C:\\Users\\Peter\\Desktop\\stuff\\MIUN\\quantitative_research\\video_compression\\videos\\BVI-HD\\BVI-HD_CDVL_videos\\ORIG\\Rowing_1920x1080_30fps.mp4",
  "output": "C:\\Users\\Peter\\Desktop\\stuff\\MIUN\\quantitative_research\\video_compression\\compressed_videos\\BVI-HD\\h264\\3\\Rowing_1920x1080_30fps_h264.mp4",
  "codec": "h264",
  "ok": "Input #0, mov,mp4,m4a,3gp,3g2,mj2, from 'C:\\Users\\Peter\\Desktop\\stuff\\MIUN\\quantitative_research\\video_compression\\videos\\BVI-HD\\BVI-HD_CDVL_videos\\ORIG\\Rowing_1920x1080_30fps.mp4':\n  Metadata:\n    major_brand     : isom\n    minor_version   : 512\n    compatible_brands: isomiso2avc1mp41\n    encoder         : Lavf54.28.101\n  Duration: 00:00:05.00, start: 0.000000, bitrate: 259220 kb/s\n  Stream #0:0[0x1](und): Video: h264 (High 4:4:4 Predictive) (avc1 / 0x31637661), yuv420p(progressive), 1920x1080, 259216 kb/s, 30 fps, 30 tbr, 30 tbn (default)\n    Metadata:\n      handler_name    : VideoHandler\n      vendor_id       : [0][0][0][0]\n[out#0/mp4 @ 000001e6c22a9a40] Codec AVOption b:a (set bitrate (in bits/s)) has not been used for any stream. The most likely reason is either wrong type (e.g. a video option with no video streams) or that it is a private option of some decoder which was not actually used for any stream.\nStream mapping:\n  Stream #0:0 -> #0:0 (h264 (native) -> h264 (libx264))\nPress [q] to stop, [?] for help\n[libx264 @ 000001e6c2d10a40] using cpu capabilities: MMX2 SSE2Fast SSSE3 SSE4.2 AVX FMA3 BMI2 AVX2\n[libx264 @ 000001e6c2d10a40] profile High, level 5.0, 4:2:0, 8-bit\n[libx264 @ 000001e6c2d10a40] 264 - core 165 r3222 b35605a - H.264/MPEG-4 AVC codec - Copyleft 2003-2025 - http://www.videolan.org/x264.html - options: cabac=1 ref=5 deblock=1:0:0 analyse=0x3:0x113 me=hex subme=8 psy=1 psy_rd=1.00:0.00 mixed_ref=1 me_range=16 chroma_me=1 trellis=2 8x8dct=1 cqm=0 deadzone=21,11 fast_pskip=1 chroma_qp_offset=-2 threads=18 lookahead_threads=3 sliced_threads=0 nr=0 decimate=1 interlaced=0 bluray_compat=0 constrained_intra=0 bframes=3 b_pyramid=2 b_adapt=1 b_bias=0 direct=3 weightb=1 open_gop=0 weightp=2 keyint=250 keyint_min=25 scenecut=40 intra_refresh=0 rc_lookahead=50 rc=cbr mbtree=1 bitrate=3000 ratetol=1.0 qcomp=0.60 qpmin=0 qpmax=69 qpstep=4 vbv_maxrate=3000 vbv_bufsize=3000 nal_hrd=none filler=0 ip_ratio=1.40 aq=1:1.00\nOutput #0, mp4, to 'C:\\Users\\Peter\\Desktop\\stuff\\MIUN\\quantitative_research\\video_compression\\compressed_videos\\BVI-HD\\h264\\3\\Rowing_1920x1080_30fps_h264.mp4':\n  Metadata:\n    major_brand     : isom\n    minor_version   : 512\n    compatible_brands: isomiso2avc1mp41\n    encoder         : Lavf62.3.100\n  Stream #0:0(und): Video: h264 (avc1 / 0x31637661), yuv420p(tv, progressive), 1920x1080, q=2-31, 3000 kb/s, 30 fps, 15360 tbn (default)\n    Metadata:\n      encoder         : Lavc62.11.100 libx264\n      handler_name    : VideoHandler\n      vendor_id       : [0][0][0][0]\n    Side data:\n      cpb: bitrate max/min/avg: 3000000/0/3000000 buffer size: 3000000 vbv_delay: N/A\nframe=    0 fps=0.0 q=0.0 size=       0KiB time=N/A bitrate=N/A speed=N/A elapsed=0:00:00.52    \nframe=    0 fps=0.0 q=0.0 size=       0KiB time=N/A bitrate=N/A speed=N/A elapsed=0:00:01.13    \nframe=    0 fps=0.0 q=0.0 size=       0KiB time=N/A bitrate=N/A speed=N/A elapsed=0:00:01.68    \nframe=    0 fps=0.0 q=0.0 size=       0KiB time=N/A bitrate=N/A speed=N/A elapsed=0:00:02.19    \nframe=    0 fps=0.0 q=0.0 size=       0KiB time=N/A bitrate=N/A speed=N/A elapsed=0:00:02.71    \nframe=    5 fps=1.5 q=46.0 size=       0KiB time=00:00:00.06 bitrate=   5.8kbits/s speed=0.0204x elapsed=0:00:03.26    \nframe=   17 fps=4.4 q=45.0 size=       0KiB time=00:00:00.50 bitrate=   0.8kbits/s speed=0.131x elapsed=0:00:03.83    \nframe=   26 fps=5.9 q=45.0 size=       0KiB time=00:00:00.76 bitrate=   0.5kbits/s speed=0.175x elapsed=0:00:04.38    \nframe=   38 fps=7.6 q=45.0 size=     256KiB time=00:00:01.16 bitrate=1797.9kbits/s speed=0.234x elapsed=0:00:04.98    \nframe=   51 fps=9.2 q=44.0 size=     512KiB time=00:00:01.60 bitrate=2621.7kbits/s speed=0.29x elapsed=0:00:05.51    \nframe=   66 fps= 11 q=45.0 size=     512KiB time=00:00:02.13 bitrate=1966.3kbits/s speed=0.353x elapsed=0:00:06.04    \nframe=   80 fps= 12 q=44.0 size=     768KiB time=00:00:02.60 bitrate=2419.9kbits/s speed=0.396x elapsed=0:00:06.55    \nframe=  110 fps= 16 q=43.0 size=    1024KiB time=00:00:03.60 bitrate=2330.3kbits/s speed=0.508x elapsed=0:00:07.08    \nframe=  137 fps= 18 q=-1.0 size=    1280KiB time=00:00:04.50 bitrate=2330.3kbits/s speed=0.588x elapsed=0:00:07.65    \n[mp4 @ 000001e6c22b1400] Starting second pass: moving the moov atom to the beginning of the file\n[out#0/mp4 @ 000001e6c22a9a40] video:1585KiB audio:0KiB subtitle:0KiB other streams:0KiB global headers:0KiB muxing overhead: 0.091356%\nframe=  150 fps= 19 q=-1.0 Lsize=    1587KiB time=00:00:04.93 bitrate=2634.8kbits/s speed=0.616x elapsed=0:00:08.00    \n[libx264 @ 000001e6c2d10a40] frame I:1     Avg QP:42.47  size: 15555\n[libx264 @ 000001e6c2d10a40] frame P:149   Avg QP:44.05  size: 10785\n[libx264 @ 000001e6c2d10a40] mb I  I16..4: 39.8% 58.0%  2.2%\n[libx264 @ 000001e6c2d10a40] mb P  I16..4: 15.4%  9.9%  0.3%  P16..4: 27.7%  1.5%  1.9%  0.0%  0.0%    skip:43.3%\n[libx264 @ 000001e6c2d10a40] 8x8 transform intra:39.3% inter:92.9%\n[libx264 @ 000001e6c2d10a40] coded y,uvDC,uvAC intra: 12.3% 12.1% 0.2% inter: 5.7% 7.5% 0.0%\n[libx264 @ 000001e6c2d10a40] i16 v,h,dc,p: 32% 36%  8% 25%\n[libx264 @ 000001e6c2d10a40] i8 v,h,dc,ddl,ddr,vr,hd,vl,hu:  2%  3% 31%  5% 20%  8% 18%  4%  9%\n[libx264 @ 000001e6c2d10a40] i4 v,h,dc,ddl,ddr,vr,hd,vl,hu:  1%  2% 15%  7% 28% 10% 16%  5% 16%\n[libx264 @ 000001e6c2d10a40] i8c dc,h,v,p: 96%  4%  0%  0%\n[libx264 @ 000001e6c2d10a40] Weighted P-Frames: Y:0.0% UV:0.0%\n[libx264 @ 000001e6c2d10a40] ref P L0: 42.3%  2.9% 21.9% 11.7% 10.7% 10.6%\n[libx264 @ 000001e6c2d10a40] kb/s:2596.10\n",
  "seconds": 8.315495491027832,
  "probe_out": {}
}